<?xml version="1.0" encoding="UTF-8" standalone="no"?><svg xmlns="http://www.w3.org/2000/svg" xmlns:xlink="http://www.w3.org/1999/xlink" contentStyleType="text/css" height="399px" preserveAspectRatio="none" style="width:849px;height:399px;background:#FFFFFF;" version="1.1" viewBox="0 0 849 399" width="849px" zoomAndPan="magnify"><defs/><g><rect fill="none" height="175.7969" style="stroke:#000000;stroke-width:1.5;" width="718.5" x="125" y="53.2969"/><rect fill="none" height="104.5313" style="stroke:#000000;stroke-width:1.5;" width="833.5" x="10" y="243.0938"/><line style="stroke:#181818;stroke-width:0.5;stroke-dasharray:5.0,5.0;" x1="72" x2="72" y1="36.2969" y2="364.625"/><line style="stroke:#181818;stroke-width:0.5;stroke-dasharray:5.0,5.0;" x1="169" x2="169" y1="36.2969" y2="364.625"/><line style="stroke:#181818;stroke-width:0.5;stroke-dasharray:5.0,5.0;" x1="424" x2="424" y1="36.2969" y2="364.625"/><line style="stroke:#181818;stroke-width:0.5;stroke-dasharray:5.0,5.0;" x1="538.5" x2="538.5" y1="36.2969" y2="364.625"/><line style="stroke:#181818;stroke-width:0.5;stroke-dasharray:5.0,5.0;" x1="773.5" x2="773.5" y1="36.2969" y2="364.625"/><rect fill="#E2E2F0" height="30.2969" rx="2.5" ry="2.5" style="stroke:#181818;stroke-width:0.5;" width="105" x="20" y="5"/><text fill="#000000" font-family="sans-serif" font-size="14" lengthAdjust="spacing" textLength="91" x="27" y="24.9951">skywalking-ui</text><rect fill="#E2E2F0" height="30.2969" rx="2.5" ry="2.5" style="stroke:#181818;stroke-width:0.5;" width="105" x="20" y="363.625"/><text fill="#000000" font-family="sans-serif" font-size="14" lengthAdjust="spacing" textLength="91" x="27" y="383.6201">skywalking-ui</text><rect fill="#E2E2F0" height="30.2969" rx="2.5" ry="2.5" style="stroke:#181818;stroke-width:0.5;" width="68" x="135" y="5"/><text fill="#000000" font-family="sans-serif" font-size="14" lengthAdjust="spacing" textLength="54" x="142" y="24.9951">Java服务</text><rect fill="#E2E2F0" height="30.2969" rx="2.5" ry="2.5" style="stroke:#181818;stroke-width:0.5;" width="68" x="135" y="363.625"/><text fill="#000000" font-family="sans-serif" font-size="14" lengthAdjust="spacing" textLength="54" x="142" y="383.6201">Java服务</text><rect fill="#E2E2F0" height="30.2969" rx="2.5" ry="2.5" style="stroke:#181818;stroke-width:0.5;" width="54" x="397" y="5"/><text fill="#000000" font-family="sans-serif" font-size="14" lengthAdjust="spacing" textLength="40" x="404" y="24.9951">agent</text><rect fill="#E2E2F0" height="30.2969" rx="2.5" ry="2.5" style="stroke:#181818;stroke-width:0.5;" width="54" x="397" y="363.625"/><text fill="#000000" font-family="sans-serif" font-size="14" lengthAdjust="spacing" textLength="40" x="404" y="383.6201">agent</text><rect fill="#FFA500" height="30.2969" rx="2.5" ry="2.5" style="stroke:#181818;stroke-width:0.5;" width="91" x="493.5" y="5"/><text fill="#000000" font-family="sans-serif" font-size="14" lengthAdjust="spacing" textLength="77" x="500.5" y="24.9951">Oap-Server</text><rect fill="#FFA500" height="30.2969" rx="2.5" ry="2.5" style="stroke:#181818;stroke-width:0.5;" width="91" x="493.5" y="363.625"/><text fill="#000000" font-family="sans-serif" font-size="14" lengthAdjust="spacing" textLength="77" x="500.5" y="383.6201">Oap-Server</text><rect fill="#E2E2F0" height="30.2969" rx="2.5" ry="2.5" style="stroke:#181818;stroke-width:0.5;" width="119" x="714.5" y="5"/><text fill="#000000" font-family="sans-serif" font-size="14" lengthAdjust="spacing" textLength="105" x="721.5" y="24.9951">Storage/MySQL</text><rect fill="#E2E2F0" height="30.2969" rx="2.5" ry="2.5" style="stroke:#181818;stroke-width:0.5;" width="119" x="714.5" y="363.625"/><text fill="#000000" font-family="sans-serif" font-size="14" lengthAdjust="spacing" textLength="105" x="721.5" y="383.6201">Storage/MySQL</text><path d="M125,53.2969 L189,53.2969 L189,60.4297 L179,70.4297 L125,70.4297 L125,53.2969 " fill="#EEEEEE" style="stroke:#000000;stroke-width:1.5;"/><rect fill="none" height="175.7969" style="stroke:#000000;stroke-width:1.5;" width="718.5" x="125" y="53.2969"/><text fill="#000000" font-family="sans-serif" font-size="13" font-weight="bold" lengthAdjust="spacing" textLength="19" x="140" y="66.3638">alt</text><text fill="#000000" font-family="sans-serif" font-size="11" font-weight="bold" lengthAdjust="spacing" textLength="87" x="204" y="65.5073">[服务行为的获取]</text><polygon fill="#181818" points="180,87.5625,170,91.5625,180,95.5625,176,91.5625" style="stroke:#181818;stroke-width:1.0;"/><line style="stroke:#181818;stroke-width:1.0;" x1="174" x2="423" y1="91.5625" y2="91.5625"/><text fill="#000000" font-family="sans-serif" font-size="13" font-weight="bold" lengthAdjust="spacing" textLength="9" x="186" y="86.4966">1</text><text fill="#000000" font-family="sans-serif" font-size="13" lengthAdjust="spacing" textLength="218" x="199" y="86.4966">通过Java的"勾子"不断获取服务的行为</text><polygon fill="#181818" points="412,116.6953,422,120.6953,412,124.6953,416,120.6953" style="stroke:#181818;stroke-width:1.0;"/><line style="stroke:#181818;stroke-width:1.0;stroke-dasharray:2.0,2.0;" x1="169" x2="418" y1="120.6953" y2="120.6953"/><text fill="#000000" font-family="sans-serif" font-size="13" font-weight="bold" lengthAdjust="spacing" textLength="9" x="176" y="115.6294">2</text><text fill="#000000" font-family="sans-serif" font-size="13" lengthAdjust="spacing" textLength="26" x="189" y="115.6294">返回</text><polygon fill="#181818" points="527,145.8281,537,149.8281,527,153.8281,531,149.8281" style="stroke:#181818;stroke-width:1.0;"/><line style="stroke:#181818;stroke-width:1.0;" x1="424" x2="533" y1="149.8281" y2="149.8281"/><text fill="#000000" font-family="sans-serif" font-size="13" font-weight="bold" lengthAdjust="spacing" textLength="9" x="431" y="144.7622">3</text><text fill="#000000" font-family="sans-serif" font-size="13" lengthAdjust="spacing" textLength="78" x="444" y="144.7622">提交服务行为</text><line style="stroke:#181818;stroke-width:1.0;" x1="539" x2="581" y1="178.9609" y2="178.9609"/><line style="stroke:#181818;stroke-width:1.0;" x1="581" x2="581" y1="178.9609" y2="191.9609"/><line style="stroke:#181818;stroke-width:1.0;" x1="540" x2="581" y1="191.9609" y2="191.9609"/><polygon fill="#181818" points="550,187.9609,540,191.9609,550,195.9609,546,191.9609" style="stroke:#181818;stroke-width:1.0;"/><text fill="#000000" font-family="sans-serif" font-size="13" font-weight="bold" lengthAdjust="spacing" textLength="9" x="546" y="173.895">4</text><text fill="#000000" font-family="sans-serif" font-size="13" lengthAdjust="spacing" textLength="208" x="559" y="173.895">汇总、分析服务行为，组成链路信息</text><polygon fill="#181818" points="762,217.0938,772,221.0938,762,225.0938,766,221.0938" style="stroke:#181818;stroke-width:1.0;"/><line style="stroke:#181818;stroke-width:1.0;" x1="539" x2="768" y1="221.0938" y2="221.0938"/><text fill="#000000" font-family="sans-serif" font-size="13" font-weight="bold" lengthAdjust="spacing" textLength="9" x="546" y="216.0278">5</text><text fill="#000000" font-family="sans-serif" font-size="13" lengthAdjust="spacing" textLength="104" x="559" y="216.0278">存储链路追踪数据</text><path d="M10,243.0938 L74,243.0938 L74,250.2266 L64,260.2266 L10,260.2266 L10,243.0938 " fill="#EEEEEE" style="stroke:#000000;stroke-width:1.5;"/><rect fill="none" height="104.5313" style="stroke:#000000;stroke-width:1.5;" width="833.5" x="10" y="243.0938"/><text fill="#000000" font-family="sans-serif" font-size="13" font-weight="bold" lengthAdjust="spacing" textLength="19" x="25" y="256.1606">alt</text><text fill="#000000" font-family="sans-serif" font-size="11" font-weight="bold" lengthAdjust="spacing" textLength="98" x="89" y="255.3042">[展示链路追踪信息]</text><polygon fill="#181818" points="527,277.3594,537,281.3594,527,285.3594,531,281.3594" style="stroke:#181818;stroke-width:1.0;"/><line style="stroke:#181818;stroke-width:1.0;" x1="72.5" x2="533" y1="281.3594" y2="281.3594"/><text fill="#000000" font-family="sans-serif" font-size="13" font-weight="bold" lengthAdjust="spacing" textLength="9" x="79.5" y="276.2935">6</text><text fill="#000000" font-family="sans-serif" font-size="13" lengthAdjust="spacing" textLength="91" x="92.5" y="276.2935">用户进入UI页面</text><polygon fill="#181818" points="762,306.4922,772,310.4922,762,314.4922,766,310.4922" style="stroke:#181818;stroke-width:1.0;"/><line style="stroke:#181818;stroke-width:1.0;" x1="539" x2="768" y1="310.4922" y2="310.4922"/><text fill="#000000" font-family="sans-serif" font-size="13" font-weight="bold" lengthAdjust="spacing" textLength="9" x="546" y="305.4263">7</text><text fill="#000000" font-family="sans-serif" font-size="13" lengthAdjust="spacing" textLength="78" x="559" y="305.4263">获取追踪数据</text><polygon fill="#181818" points="83.5,335.625,73.5,339.625,83.5,343.625,79.5,339.625" style="stroke:#181818;stroke-width:1.0;"/><line style="stroke:#181818;stroke-width:1.0;" x1="77.5" x2="538" y1="339.625" y2="339.625"/><text fill="#000000" font-family="sans-serif" font-size="13" font-weight="bold" lengthAdjust="spacing" textLength="9" x="89.5" y="334.5591">8</text><text fill="#000000" font-family="sans-serif" font-size="13" lengthAdjust="spacing" textLength="52" x="102.5" y="334.5591">渲染页面</text></g></svg>